<svg width="229" height="213" viewBox="0 0 229 213" fill="none" xmlns="http://www.w3.org/2000/svg">
<path d="M114.753 212.551C177.745 212.433 228.744 164.875 228.635 106.354C228.525 47.8321 177.349 0.465357 114.357 0.583205C51.3647 0.701053 0.365589 48.2589 0.475074 106.78C0.584558 165.302 51.7613 212.669 114.753 212.551ZM114.478 65.3255C135.559 65.286 152.699 81.152 152.735 100.735C152.772 120.32 135.689 136.247 114.61 136.287C93.5296 136.326 76.3897 120.462 76.3531 100.878C76.3164 81.2933 93.3973 65.3649 114.478 65.3255ZM53.4559 190.547C53.4555 190.317 53.7024 190.085 53.702 189.856C65.063 164.26 88.5897 146.705 115.621 146.655C142.653 146.604 165.998 164.071 177.701 189.393C159.869 200.947 138.057 207.898 114.744 207.942C91.928 207.984 70.8355 201.573 53.4553 190.546L53.4559 190.547Z" fill="black"/>
</svg>
